<?xml version="1.0" encoding="UTF-8" standalone="no"?>
<!-- Created with Inkscape (http://www.inkscape.org/) -->

<svg
   xmlns:dc="http://purl.org/dc/elements/1.1/"
   xmlns:cc="http://creativecommons.org/ns#"
   xmlns:rdf="http://www.w3.org/1999/02/22-rdf-syntax-ns#"
   xmlns:svg="http://www.w3.org/2000/svg"
   xmlns="http://www.w3.org/2000/svg"
   xmlns:sodipodi="http://sodipodi.sourceforge.net/DTD/sodipodi-0.dtd"
   xmlns:inkscape="http://www.inkscape.org/namespaces/inkscape"
   id="svg2"
   version="1.1"
   inkscape:version="0.91 r13725"
   xml:space="preserve"
   width="1920"
   height="1080"
   viewBox="0 0 1920 1080"
   sodipodi:docname="logo.svg"
   inkscape:export-filename="/home/sandra/Documents/Node/Portfolio/public/assets/images/s-logo-2.png"
   inkscape:export-xdpi="90"
   inkscape:export-ydpi="90"><metadata
     id="metadata8"><rdf:RDF><cc:Work
         rdf:about=""><dc:format>image/svg+xml</dc:format><dc:type
           rdf:resource="http://purl.org/dc/dcmitype/StillImage" /><dc:title /></cc:Work></rdf:RDF></metadata><defs
     id="defs6"><radialGradient
       fx="0"
       fy="0"
       cx="0"
       cy="0"
       r="1"
       gradientUnits="userSpaceOnUse"
       gradientTransform="matrix(75.2299,0,0,-75.2299,74.740701,49.727302)"
       spreadMethod="pad"
       id="radialGradient14"><stop
         style="stop-opacity:1;stop-color:#ffffff"
         offset="0"
         id="stop16" /><stop
         style="stop-opacity:1;stop-color:#ffffff"
         offset="0.31"
         id="stop18" /><stop
         style="stop-opacity:1;stop-color:#f5f4f5"
         offset="1"
         id="stop20" /></radialGradient></defs><sodipodi:namedview
     pagecolor="#ffffff"
     bordercolor="#666666"
     borderopacity="1"
     objecttolerance="10"
     gridtolerance="10"
     guidetolerance="10"
     inkscape:pageopacity="0"
     inkscape:pageshadow="2"
     inkscape:window-width="1366"
     inkscape:window-height="741"
     id="namedview4"
     showgrid="false"
     inkscape:zoom="0.14196444"
     inkscape:cx="1106.7492"
     inkscape:cy="170.99615"
     inkscape:window-x="0"
     inkscape:window-y="0"
     inkscape:window-maximized="1"
     inkscape:current-layer="g10" /><g
     id="g10"
     inkscape:groupmode="layer"
     inkscape:label="ink_ext_XXXXXX"
     transform="matrix(1.25,0,0,-1.25,0,1080)"><rect
       style="opacity:1;fill:#800000;fill-opacity:1;fill-rule:evenodd;stroke:none;stroke-width:2;stroke-miterlimit:4;stroke-dasharray:none;stroke-opacity:1"
       id="rect4140"
       width="1538.4135"
       height="867.82294"
       x="0"
       y="-862.18774"
       transform="scale(1,-1)" /><path
       inkscape:connector-curvature="0"
       id="path30"
       style="fill:#ff4500;fill-opacity:1;fill-rule:evenodd;stroke:none"
       d="m 459.67102,84.193392 -55.12304,-55.133754 -39.45889,0 55.14446,55.133754 -0.0214,0 103.8878,103.895828 0.0535,0.0536 307.92606,0 c 72.93161,0 124.26913,55.26761 124.24771,125.47119 0.0214,70.19286 -51.3161,125.46048 -124.24771,125.46048 -42.68757,0 -85.38584,-0.0428 -128.10821,-0.0321 -64.99379,0 -110.21129,48.89058 -110.222,111.36515 0,62.47457 45.24962,111.36515 110.222,111.36515 l 293.81199,-0.0107 -103.95205,-103.93866 -189.85994,0 c -9.03547,0 -9.03547,-14.82888 0,-14.82888 42.69024,-0.0107 85.37781,0.0294 128.0975,0.0294 129.23797,0 228.19707,-100.73944 228.22917,-229.40985 0,-128.69184 -99.03403,-229.420568 -228.21846,-229.420568 l -372.40852,0" /><path
       inkscape:connector-curvature="0"
       id="path32"
       style="fill:#ff4500;fill-opacity:1;fill-rule:evenodd;stroke:none"
       d="m 703.97133,320.9869 c 42.71166,0 85.43135,0.0214 128.10821,0.0401 9.02475,-0.0187 8.99263,-14.85029 -0.0107,-14.85029 l -189.85994,0 -103.94938,-103.94937 293.82003,0 c 64.99379,0 110.20325,48.90129 110.20325,111.38657 0.0107,62.45315 -45.20946,111.34373 -110.21396,111.34373 -42.70899,0.0107 -85.39655,-0.0428 -128.0975,-0.0214 -72.94233,0 -124.25843,55.25691 -124.25843,125.47119 -0.008,70.19287 51.32681,125.47119 124.25843,125.47119 l 307.92877,0 103.9386,103.93063 -0.062,0 55.1337,55.13108 -39.5312,0 -55.1337,-55.13108 -372.27467,0.0187 c -129.17372,-0.0187 -228.2078,-100.74747 -228.2078,-229.42056 0,-128.69183 98.98321,-229.42056 228.2078,-229.42056" /></g></svg>